<svg data-v-0dd9719b="" version="1.0" xmlns="http://www.w3.org/2000/svg" xmlns:xlink="http://www.w3.org/1999/xlink" width="100%" height="100%" viewBox="0 0 340.000000 250.000000" preserveAspectRatio="xMidYMid meet" color-interpolation-filters="sRGB" style="margin: auto;"> <rect data-v-0dd9719b="" x="0" y="0" width="100%" height="100%" fill="#ffffff" fill-opacity="1" class="background"></rect> <rect data-v-0dd9719b="" x="0" y="0" width="100%" height="100%" fill="url(#watermark)" fill-opacity="1" class="watermarklayer"></rect> <g data-v-0dd9719b="" fill="#dd5b5e" class="icon-text-wrapper icon-svg-group iconsvg" transform="translate(49.30999755859375,95)"><g class="iconsvg-imagesvg" transform="translate(0,0)"><g><rect fill="#dd5b5e" fill-opacity="0" stroke-width="2" x="0" y="0" width="60" height="60" class="image-rect"></rect> <svg filter="url(#colors9408889816)" x="0" y="0" width="60" height="60" filtersec="colorsf6612634595" class="image-svg-svg primary" style="overflow: visible;"><svg xmlns="http://www.w3.org/2000/svg" xmlns:xlink="http://www.w3.org/1999/xlink" version="1.1" x="0px" y="0px" viewBox="10 10 80 80" xml:space="preserve"><path d="M89,75.4379883h-1.75V43.125c0-0.5522461-0.4472656-1-1-1h-1.5898438v-7.7861328c0-0.5522461-0.4472656-1-1-1H82.005127  c-0.274292-8.2110596-7.0224609-14.8105469-15.2990723-14.8105469c-0.9731445,0-1.9221191,0.1010132-2.8453369,0.2752686  C61.3361816,13.4406128,55.9616699,10,50,10c-5.9414062,0-11.3383789,3.4467163-13.8616943,8.8034668  c-0.9229736-0.1741333-1.871582-0.2751465-2.8443604-0.2751465c-8.2766113,0-15.0247803,6.5994873-15.2990723,14.8105469h-1.6550293  c-0.5527344,0-1,0.4477539-1,1V42.125H13.75c-0.5527344,0-1,0.4477539-1,1v32.3129883H11c-0.5527344,0-1,0.4477539-1,1V89  c0,0.5522461,0.4472656,1,1,1h78c0.5527344,0,1-0.4477539,1-1V76.4379883C90,75.8857422,89.5527344,75.4379883,89,75.4379883z   M80.005127,33.3388672H53.407959c0.2602539-6.7734985,5.588623-12.2578735,12.2980957-12.7598877v2.8682861  c0,0.5522461,0.4472656,1,1,1s1-0.4477539,1-1v-2.8682861C74.4165039,21.0808716,79.744873,26.5653076,80.005127,33.3388672z   M49,12.038147v2.8807983c0,0.5522461,0.4472656,1,1,1s1-0.4477539,1-1v-2.8815918  c4.6547852,0.34729,8.782959,3.1046143,10.8916016,7.2772827c-5.9399414,1.9725952-10.2651367,7.4827271-10.4836426,14.024231  h-2.815918c-0.2185059-6.5402222-4.5419922-12.0493774-10.4802246-14.0229492  C40.220459,15.1494751,44.3591309,12.3870239,49,12.038147z M32.2939453,20.5789795v2.8682861c0,0.5522461,0.4472656,1,1,1  s1-0.4477539,1-1v-2.8682861c6.7094727,0.5020142,12.0378418,5.9863892,12.2980957,12.7598877H19.994873  C20.255127,26.5653076,25.5834961,21.0808716,32.2939453,20.5789795z M17.3398438,35.3388672h65.3203125V42.125H17.3398438  V35.3388672z M14.75,44.125h70.5v31.3129883h-70.5V44.125z M88,88H12V77.4379883h76V88z"></path></svg></svg> <defs><filter id="colors9408889816"><feColorMatrix type="matrix" values="0 0 0 0 0.16015625  0 0 0 0 0.3984375  0 0 0 0 0.796875  0 0 0 1 0" class="icon-fecolormatrix"></feColorMatrix></filter> <filter id="colorsf6612634595"><feColorMatrix type="matrix" values="0 0 0 0 0.99609375  0 0 0 0 0.99609375  0 0 0 0 0.99609375  0 0 0 1 0" class="icon-fecolormatrix"></feColorMatrix></filter> <filter id="colorsb1117096268"><feColorMatrix type="matrix" values="0 0 0 0 0  0 0 0 0 0  0 0 0 0 0  0 0 0 1 0" class="icon-fecolormatrix"></feColorMatrix></filter></defs></g></g> <g transform="translate(67,2.8387489318847656)"><g data-gra="path-name" fill-rule="" class="tp-name iconsvg-namesvg" transform="translate(0,0)"><g transform="scale(1)"><g><path d="M2.68 1.71L2.68-1.89 18.85-1.89 18.85-37.66 24.26-37.66 24.26-25.14 40.43-25.14 40.43-21.53 24.26-21.53 24.26-1.89 42.23-1.89 42.23 1.71 2.68 1.71ZM74.84-25.36L70.36-25.36 71.1-19.38 75.59-19.38 74.84-25.36ZM74.84-14.41L70.36-14.41 71.1-8.39 75.59-8.39 74.84-14.41ZM85.3-4.17L87.1-4.17 87.1-7.73 85.3-7.73 85.3-15.07 87.1-15.07 87.1-18.63 85.3-18.63 85.3-27.29Q85.3-28.17 84.64-28.83L84.64-28.83Q83.98-29.49 83.06-29.49L83.06-29.49 62.8-29.49Q61.88-29.49 61.22-28.83L61.22-28.83Q60.56-28.17 60.56-27.29L60.56-27.29 60.56-18.63 58.84-18.63 58.84-15.07 60.56-15.07 60.56-6.42Q60.56-5.49 61.22-4.83L61.22-4.83Q61.88-4.17 62.8-4.17L62.8-4.17 79.94-4.17 79.94-2.77Q79.94-2.46 79.19-2.15L79.19-2.15Q78.53-1.89 78.09-1.89L78.09-1.89 74.14-1.89 75.06 1.71 83.06 1.71Q83.98 1.71 84.64 1.05L84.64 1.05Q85.3 0.4 85.3-0.53L85.3-0.53 85.3-4.17ZM65.92-18.63L65.92-25.05Q65.92-25.93 66.8-25.93L66.8-25.93 79.06-25.93Q79.94-25.93 79.94-25.05L79.94-25.05 79.94-18.63 65.92-18.63ZM79.06-7.73L66.8-7.73Q65.92-7.73 65.92-8.61L65.92-8.61 65.92-15.07 79.94-15.07 79.94-8.61Q79.94-7.73 79.06-7.73L79.06-7.73ZM67.76-37.66L62.4-37.66 58.84-30.54 64.2-30.54 64.82-31.73 87.1-31.73 87.1-35.29 66.58-35.29 67.76-37.66ZM50.8-27.86L56.65-27.86 53.48-37.66 47.68-37.66 50.8-27.86ZM47.68 1.71L53.48 1.71 56.73-14.41Q57.08-16.13 56.56-17.75L56.56-17.75 53.96-25.93 48.12-25.93 51.06-16.79Q51.28-16.13 51.11-15.42L51.11-15.42 47.68 1.71ZM132.06-34.1L132.06-37.66Q131.09-36.74 128.5-36.74L128.5-36.74 98.57-36.74Q95.36-36.74 95.36-34.5L95.36-34.5 95.36-11.73Q95.36-4.57 93.56 1.71L93.56 1.71 99.01 1.71Q100.77-4.57 100.77-11.73L100.77-11.73 100.77-32.3Q100.77-33.18 101.65-33.18L101.65-33.18 109.69-33.18 109.69-20.61Q109.69-16.22 108.63-11.91L108.63-11.91 106.44-2.72Q106.26-1.85 106.26-0.97L106.26-0.97 106.26-0.53Q106.26 0.44 107.05 1.05L107.05 1.05Q107.8 1.71 108.9 1.71L108.9 1.71 109.95 1.71Q112.46 1.71 117.73 0.53L117.73 0.53 118.04 1.71 123.4 1.71 121.29-7.21 115.88-7.21 116.89-2.94Q112.94-2.07 111.36-1.93L111.36-1.93 113.86-11.65Q115-16.22 115-20.92L115-20.92 115-33.18 123.97-33.18 123.97-24.21Q123.97-8.13 126.17 1.71L126.17 1.71 131.62 1.71Q129.42-8.13 129.42-24.21L129.42-24.21 129.42-33.27Q131.44-33.53 132.06-34.1L132.06-34.1ZM137.81 1.67L143.04 1.67 148.23-8.39 154.73-8.39 154.73 1.67 160.09 1.67 160.09-8.39 166.42-8.39 171.47 1.67 177.01 1.67 172-8.39 177.06-8.39 177.06-11.91 160.09-11.91 160.09-14.37 154.73-14.37 154.73-11.91 137.81-11.91 137.81-8.39 143-8.39 137.81 1.67ZM165.76-34.06L176.22-34.06 176.22-37.66 138.69-37.66 138.69-34.06 149.11-34.06 149.11-30.63 142.6-30.63Q141.68-30.63 141.06-29.97L141.06-29.97Q140.45-29.31 140.45-28.39L140.45-28.39 140.45-18.02Q140.45-17.09 141.06-16.44L141.06-16.44Q141.72-15.78 142.65-15.78L142.65-15.78Q142.69-15.78 157.41-15.78L157.41-15.78 172.22-15.78Q173.14-15.78 173.8-16.44L173.8-16.44Q174.46-17.09 174.46-18.02L174.46-18.02 174.46-28.39Q174.46-29.31 173.8-29.97L173.8-29.97Q173.14-30.63 172.22-30.63L172.22-30.63 165.76-30.63 165.76-34.06ZM146.6-19.25L146.6-19.25Q145.68-19.25 145.68-20.17L145.68-20.17 145.68-26.28Q145.68-27.11 146.56-27.11L146.56-27.11 149.11-27.11 149.11-19.25 146.6-19.25ZM154.47-19.25L154.47-27.11 160.4-27.11 160.4-19.29 154.47-19.25ZM165.76-27.11L168.35-27.11Q169.23-27.11 169.23-26.24L169.23-26.24 169.23-20.17Q169.23-19.29 168.35-19.29L168.35-19.29 165.76-19.29 165.76-27.11ZM160.4-34.06L160.4-30.63 154.47-30.63 154.47-34.06 160.4-34.06Z" transform="translate(-2.680000066757202, 37.65999984741211)"></path></g> <!----> <!----> <!----> <!----> <!----> <!----> <!----></g></g> <g data-gra="path-slogan" fill-rule="" class="tp-slogan iconsvg-slogansvg" fill="#dd5b5e" transform="translate(5,45.369998931884766)"><rect x="0" height="1" y="3.9750003814697266" width="29.174179077148438"></rect> <rect height="1" y="3.9750003814697266" width="29.174179077148438" x="135.20582580566406"></rect> <g transform="translate(32.17417907714844,0)"><g transform="scale(1)"><path d="M7.17-6.09L7.17-6.09L6.09-6.09Q6-7.73 3.94-7.83L3.94-7.83Q2.02-7.78 2.02-6.33L2.02-6.33Q2.02-5.39 3.05-5.25L3.05-5.25L5.48-4.69Q7.41-4.22 7.41-2.34L7.41-2.34Q7.36 0.05 4.03 0.14L4.03 0.14Q2.20 0.14 1.45-0.61L1.45-0.61Q0.52-1.31 0.56-2.77L0.56-2.77L1.69-2.77Q1.73-0.80 4.03-0.75L4.03-0.75Q6.28-0.80 6.33-2.20L6.33-2.20Q6.52-3.38 4.45-3.75L4.45-3.75L2.67-4.13Q0.84-4.64 0.84-6.19L0.84-6.19Q0.98-8.72 3.84-8.81L3.84-8.81Q7.08-8.81 7.17-6.09ZM10.03-5.06L14.53-5.06L14.53-8.58L15.70-8.58L15.70 0L14.53 0L14.53-3.98L10.03-3.98L10.03 0L8.86 0L8.86-8.58L10.03-8.58L10.03-5.06ZM23.16 0L22.31-2.48L18.84-2.48L17.95 0L16.78 0L20.02-8.58L21.33-8.58L24.42 0L23.16 0ZM20.58-7.31L19.22-3.52L21.89-3.52L20.63-7.31L20.58-7.31ZM26.86-8.58L31.17-1.64L31.17-8.58L32.30-8.58L32.30 0L30.98 0L26.63-6.94L26.58-6.94L26.58 0L25.45 0L25.45-8.58L26.86-8.58ZM40.50-3.61L37.88-3.61L37.88-4.59L41.63-4.59L41.63 0L40.88 0L40.59-1.08Q39.61 0.09 37.78 0.14L37.78 0.14Q36.05 0.14 35.11-0.75L35.11-0.75Q33.70-2.06 33.75-4.36L33.75-4.36Q34.08-8.63 37.83-8.81L37.83-8.81Q41.02-8.63 41.48-6L41.48-6L40.36-6Q39.89-7.78 37.78-7.83L37.78-7.83Q35.11-7.64 34.97-4.31L34.97-4.31Q34.97-0.75 37.83-0.75L37.83-0.75Q38.86-0.75 39.61-1.31L39.61-1.31Q40.55-2.06 40.50-3.61L40.50-3.61ZM44.58-5.06L49.08-5.06L49.08-8.58L50.25-8.58L50.25 0L49.08 0L49.08-3.98L44.58-3.98L44.58 0L43.41 0L43.41-8.58L44.58-8.58L44.58-5.06ZM57.70 0L56.86-2.48L53.39-2.48L52.50 0L51.33 0L54.56-8.58L55.88-8.58L58.97 0L57.70 0ZM55.13-7.31L53.77-3.52L56.44-3.52L55.17-7.31L55.13-7.31ZM60.19-8.58L61.36-8.58L61.36 0L60.19 0L60.19-8.58ZM73.08-3.61L70.45-3.61L70.45-4.59L74.20-4.59L74.20 0L73.45 0L73.17-1.08Q72.19 0.09 70.36 0.14L70.36 0.14Q68.63 0.14 67.69-0.75L67.69-0.75Q66.28-2.06 66.33-4.36L66.33-4.36Q66.66-8.63 70.41-8.81L70.41-8.81Q73.59-8.63 74.06-6L74.06-6L72.94-6Q72.47-7.78 70.36-7.83L70.36-7.83Q67.69-7.64 67.55-4.31L67.55-4.31Q67.55-0.75 70.41-0.75L70.41-0.75Q71.44-0.75 72.19-1.31L72.19-1.31Q73.13-2.06 73.08-3.61L73.08-3.61ZM81.66-3.19L81.66-8.58L82.83-8.58L82.83-3.05Q82.69 0.05 79.31 0.14L79.31 0.14Q76.17 0.05 76.03-2.86L76.03-2.86L76.03-8.58L77.20-8.58L77.20-3.19Q77.25-0.84 79.36-0.80L79.36-0.80Q81.66-0.84 81.66-3.19L81.66-3.19ZM90.28 0L89.44-2.48L85.97-2.48L85.08 0L83.91 0L87.14-8.58L88.45-8.58L91.55 0L90.28 0ZM87.70-7.31L86.34-3.52L89.02-3.52L87.75-7.31L87.70-7.31ZM92.58-8.58L93.75-8.58L93.75-1.03L98.11-1.03L98.11 0L92.58 0L92.58-8.58ZM99.42-8.58L100.59-8.58L100.59 0L99.42 0L99.42-8.58Z" transform="translate(-0.5602678571428572, 8.8125)"></path></g></g></g></g></g><defs v-gra="od"></defs></svg>